<svg xmlns:mydata="http://www.w3.org/2000/svg" xmlns="http://www.w3.org/2000/svg" xmlns:xlink="http://www.w3.org/1999/xlink" mydata:contrastcolor="00B5E2" mydata:template="Default" mydata:presentation="2.5" mydata:layouttype="undefined" mydata:specialfontid="undefined" mydata:id1="131" mydata:id2="746" mydata:companyname="Clear My Doubts" mydata:companytagline="" version="1.1" viewBox="133.02 281.43 283.96 73.57"><g fill="#5c068c" fill-rule="none" stroke="none" stroke-width="1" stroke-linecap="butt" stroke-linejoin="miter" stroke-miterlimit="10" stroke-dasharray="" stroke-dashoffset="0" font-family="none" font-weight="none" font-size="none" text-anchor="none" style="mix-blend-mode: normal"><g data-paper-data="{&quot;isGlobalGroup&quot;:true,&quot;bounds&quot;:{&quot;x&quot;:133.01872255775322,&quot;y&quot;:115,&quot;width&quot;:283.96255488449356,&quot;height&quot;:240}}"><g data-paper-data="{&quot;stacked&quot;:true,&quot;isPrimaryText&quot;:true}" fill-rule="nonzero"><path d="M148.20498,315.15382c-4.47771,0 -8.13577,-1.51028 -10.97418,-4.53083c-1.39644,-1.51787 -2.44756,-3.24065 -3.15337,-5.16834c-0.70581,-1.92769 -1.05871,-4.10583 -1.05871,-6.53442c0,-5.25182 1.53305,-9.47908 4.59914,-12.68178c3.05091,-3.2027 6.92906,-4.80405 11.63445,-4.80405c3.44556,0.06071 6.66344,1.35849 9.65363,3.89333l-3.00538,2.70939c-1.04733,-0.98661 -2.1326,-1.71898 -3.25582,-2.19711c-1.12322,-0.47813 -2.26921,-0.71719 -3.43797,-0.71719c-0.83483,0 -1.66206,0.09107 -2.48171,0.27322c-0.81965,0.18214 -1.60894,0.44018 -2.36787,0.77411c-0.75893,0.33393 -1.47613,0.72478 -2.15158,1.17255c-0.67545,0.44777 -1.29398,0.93728 -1.85559,1.46854c-1.07769,1.22947 -1.90872,2.67524 -2.4931,4.3373c-0.58438,1.66206 -0.87657,3.51007 -0.87657,5.54401c0,1.89733 0.2846,3.64668 0.8538,5.24803c0.5692,1.60135 1.34711,2.97122 2.33372,4.10962c1.06251,1.04733 2.29577,1.87457 3.6998,2.48171c1.40403,0.60715 2.91051,0.91072 4.51945,0.91072c1.18394,0 2.33372,-0.23906 3.44935,-0.71719c1.11563,-0.47813 2.19711,-1.2105 3.24444,-2.19711l3.00538,2.70939c-2.97502,2.55002 -6.26879,3.85538 -9.88131,3.9161z" data-paper-data="{&quot;glyphName&quot;:&quot;C&quot;,&quot;glyphIndex&quot;:0,&quot;firstGlyphOfWord&quot;:true,&quot;word&quot;:1,&quot;line&quot;:1,&quot;firstGlyphOfFirstLine&quot;:true}"/><path d="M175.13953,314.60739v-32.64932h3.89333v28.9609h12.38579v3.68842z" data-paper-data="{&quot;glyphName&quot;:&quot;L&quot;,&quot;glyphIndex&quot;:1,&quot;word&quot;:1,&quot;line&quot;:1}"/><path d="M206.85536,314.60739v-32.64932h16.18805v3.71118h-12.29472v10.63266h11.42954v3.68842h-11.42954v10.92864h13.0233v3.68842z" data-paper-data="{&quot;glyphName&quot;:&quot;E&quot;,&quot;glyphIndex&quot;:2,&quot;word&quot;:1,&quot;line&quot;:1}"/><path d="M261.45304,314.60739l-3.52904,-9.6081h-12.22642c-0.28839,0.75893 -0.58438,1.54443 -0.88795,2.35649c-0.30357,0.81206 -0.61094,1.63171 -0.9221,2.45894c-0.31116,0.82724 -0.61474,1.64689 -0.91072,2.45894c-0.29598,0.81206 -0.58058,1.58997 -0.8538,2.33372h-4.18931l12.31749,-32.64932h3.21029l12.18088,32.64932zM251.77664,288.31034l-0.04554,-0.13661v0.02277c-0.01518,-0.03036 -0.02277,-0.04933 -0.02277,-0.05692c0,-0.00759 -0.00759,-0.02656 -0.02277,-0.05692c-0.03036,-0.04554 -0.0683,-0.13661 -0.11384,-0.27322l0.40982,0.02277c-0.03036,0.04554 -0.05313,0.09487 -0.0683,0.14799c-0.01518,0.05313 -0.03795,0.10246 -0.0683,0.14799v-0.02277zM251.77664,288.31034c-0.25804,0.7134 -0.50849,1.39644 -0.75134,2.04912v-0.02277c-0.28839,0.80447 -0.57299,1.58997 -0.8538,2.35649c-0.28081,0.76652 -0.56541,1.53684 -0.8538,2.31095c-0.25804,0.74375 -0.51987,1.47992 -0.7855,2.2085c-0.26563,0.72858 -0.52746,1.45715 -0.7855,2.18573c-0.12143,0.33393 -0.23147,0.6413 -0.33014,0.9221c-0.09866,0.28081 -0.2163,0.60335 -0.3529,0.96764h9.47149z" data-paper-data="{&quot;glyphName&quot;:&quot;A&quot;,&quot;glyphIndex&quot;:3,&quot;word&quot;:1,&quot;line&quot;:1}"/><path d="M297.92738,314.60739l-7.76389,-13.77464h-4.53083v13.77464h-3.89333v-32.64932h9.44872c2.94466,0 5.29736,0.81965 7.05808,2.45894c1.71519,1.62412 2.57278,3.77949 2.57278,6.46611c0,1.22947 -0.17455,2.35649 -0.52366,3.38105c-0.34911,1.02456 -0.88036,1.94666 -1.59376,2.76631c-0.6375,0.7134 -1.32434,1.30157 -2.0605,1.76452c-0.73617,0.46295 -1.62032,0.83862 -2.65247,1.12702c0.16697,0.28839 0.33393,0.57299 0.5009,0.8538c0.16697,0.28081 0.33393,0.57299 0.5009,0.87657c0.34911,0.65268 0.7096,1.30537 1.08148,1.95805c0.37188,0.65268 0.74755,1.32054 1.12702,2.00358c0.47054,0.81965 0.95626,1.66586 1.45715,2.53863c0.5009,0.87277 1.00179,1.74175 1.50269,2.60694c0.16697,0.31875 0.34911,0.64509 0.54643,0.97902c0.19732,0.33393 0.39085,0.67166 0.58058,1.01318c0.18973,0.34152 0.37567,0.66786 0.55782,0.97902c0.18214,0.31116 0.34911,0.60335 0.5009,0.87657zM285.63266,285.66925v11.49784h4.43976c2.09466,0 3.7719,-0.54643 5.03173,-1.6393v0.02277c1.18394,-1.06251 1.7759,-2.55761 1.7759,-4.4853c0,-1.70001 -0.54264,-3.02435 -1.62791,-3.97302c-1.08527,-0.94867 -2.66765,-1.423 -4.74713,-1.423z" data-paper-data="{&quot;glyphName&quot;:&quot;R&quot;,&quot;glyphIndex&quot;:4,&quot;lastGlyphOfWord&quot;:true,&quot;word&quot;:1,&quot;line&quot;:1}"/><path d="M361.22243,307.75422c-0.01518,-0.03036 -0.02277,-0.04554 -0.02277,-0.04554zM372.69751,314.60739v-22.81354l0.02277,-0.31875c-1.76073,3.82502 -3.53663,7.69559 -5.32771,11.61168c-1.79108,3.9161 -3.54422,7.7563 -5.25941,11.52061h-1.75314l-10.58712,-23.10952v23.10952h-3.89333v-32.64932h3.36966l11.8849,25.65954c0.01518,0.04554 0.02656,0.09866 0.03415,0.15938c0.00759,0.06071 0.01897,0.10625 0.03415,0.13661v-0.15938l0.0683,0.13661c0.03036,-0.06071 0.05692,-0.12143 0.07969,-0.18214c0.02277,-0.06071 0.04933,-0.12902 0.07969,-0.20491c0.01518,-0.03036 0.02656,-0.06451 0.03415,-0.10246c0.00759,-0.03795 0.02656,-0.08728 0.05692,-0.14799l11.61168,-25.29525h3.3469v32.64932z" data-paper-data="{&quot;glyphName&quot;:&quot;M&quot;,&quot;glyphIndex&quot;:5,&quot;firstGlyphOfWord&quot;:true,&quot;word&quot;:2,&quot;line&quot;:1}"/><path d="M406.41692,302.24436v12.36303h-3.84779v-12.36303c-0.31875,-0.66786 -0.6375,-1.31675 -0.95626,-1.94666c-0.31875,-0.62991 -0.64509,-1.2788 -0.97902,-1.94666c-0.45536,-0.94108 -0.93728,-1.91631 -1.44577,-2.92569c-0.50849,-1.00938 -0.99041,-1.9922 -1.44577,-2.94846c-0.40982,-0.81965 -0.83862,-1.68483 -1.28639,-2.59555c-0.44777,-0.91072 -0.89554,-1.82144 -1.34331,-2.73216c-0.44777,-0.91072 -0.88795,-1.81006 -1.32054,-2.69801c-0.43259,-0.88795 -0.83862,-1.71898 -1.21809,-2.4931h4.32592l7.46791,15.41394v-0.02277c0.04554,0.07589 0.08728,0.15558 0.12522,0.23906c0.03795,0.08348 0.08728,0.18594 0.14799,0.30737c0.03036,-0.07589 0.06451,-0.15938 0.10246,-0.25045c0.03795,-0.09107 0.07969,-0.17455 0.12522,-0.25045c0.66786,-1.32054 1.34711,-2.66765 2.03774,-4.04132c0.69063,-1.37367 1.39264,-2.75113 2.10604,-4.13239v0.02277c0.2125,-0.44018 0.4288,-0.88416 0.64889,-1.33193c0.22009,-0.44777 0.45157,-0.90693 0.69442,-1.37746c0.39465,-0.77411 0.80067,-1.5634 1.21809,-2.36787c0.41741,-0.80447 0.79309,-1.54063 1.12702,-2.2085h4.28038z" data-paper-data="{&quot;glyphName&quot;:&quot;Y&quot;,&quot;glyphIndex&quot;:6,&quot;lastGlyphOfWord&quot;:true,&quot;word&quot;:2,&quot;line&quot;:1,&quot;lastGlyphOfFirstLine&quot;:true}"/><path d="M165.00777,354.45357v-32.64932h8.60631c5.43396,0 9.55497,1.3509 12.36303,4.0527c2.80805,2.7018 4.21208,6.64826 4.21208,11.83936c0,4.94825 -1.51787,8.98577 -4.5536,12.11258c-3.03573,3.09645 -7.1871,4.64467 -12.4541,4.64467zM168.87833,325.51543v25.24972h4.00717c2.0643,0 3.95025,-0.29978 5.65785,-0.89934c1.7076,-0.59956 3.1306,-1.40023 4.269,-2.40202c1.04733,-1.09286 1.87836,-2.46653 2.4931,-4.12101c0.61474,-1.65448 0.9221,-3.51386 0.9221,-5.57816c0,-8.16612 -4.31833,-12.24919 -12.95499,-12.24919z" data-paper-data="{&quot;glyphName&quot;:&quot;D&quot;,&quot;glyphIndex&quot;:7,&quot;firstGlyphOfWord&quot;:true,&quot;word&quot;:2,&quot;line&quot;:2,&quot;firstGlyphOfSecondLine&quot;:true}"/><path d="M222.01885,355c-4.61432,0 -8.30273,-1.54063 -11.06525,-4.6219c-2.74734,-3.12681 -4.12101,-7.09603 -4.12101,-11.90767c0,-2.55002 0.36808,-4.86856 1.10425,-6.95563c0.73617,-2.08707 1.77211,-3.9123 3.10783,-5.47571c1.42679,-1.51787 3.11542,-2.69042 5.06588,-3.51766c1.95046,-0.82724 4.1248,-1.24086 6.52303,-1.24086c2.21609,0 4.22346,0.37567 6.02214,1.12702c1.79867,0.75134 3.36587,1.90872 4.70159,3.47212h-0.02277c2.76252,3.00538 4.14378,6.92906 4.14378,11.77106c0,5.32771 -1.40403,9.55497 -4.21208,12.68178c-2.83841,3.11163 -6.58754,4.66744 -11.24739,4.66744zM222.24653,324.969c-1.70001,0 -3.22547,0.30357 -4.57637,0.91072c-1.3509,0.60715 -2.57278,1.51028 -3.66565,2.70939c-2.15537,2.41341 -3.23306,5.6237 -3.23306,9.63087c0,4.02235 1.03215,7.20987 3.09645,9.56256c2.0643,2.33752 4.7661,3.50627 8.10541,3.50627c1.7759,0 3.36587,-0.29978 4.7699,-0.89934c1.40403,-0.59956 2.62212,-1.45336 3.65426,-2.5614h-0.02277c1.01697,-1.18394 1.79488,-2.59935 2.33372,-4.24623c0.53884,-1.64689 0.80826,-3.51007 0.80826,-5.58955c0,-2.0643 -0.24665,-3.89712 -0.73996,-5.49847c-0.49331,-1.60135 -1.25603,-2.97122 -2.28818,-4.10962c-1.01697,-1.1384 -2.2047,-1.9922 -3.56319,-2.5614c-1.35849,-0.5692 -2.9181,-0.8538 -4.67882,-0.8538z" data-paper-data="{&quot;glyphName&quot;:&quot;O&quot;,&quot;glyphIndex&quot;:8,&quot;word&quot;:2,&quot;line&quot;:2}"/><path d="M277.68662,341.22536c0,9.1831 -3.95404,13.77464 -11.86213,13.77464c-7.55898,0 -11.33847,-4.43217 -11.33847,-13.29651v-19.89924h3.89333v19.60325c0,6.58754 2.61832,9.88131 7.85496,9.88131c5.0545,0 7.58175,-3.19511 7.58175,-9.58533v-19.89924h3.87056z" data-paper-data="{&quot;glyphName&quot;:&quot;U&quot;,&quot;glyphIndex&quot;:9,&quot;word&quot;:2,&quot;line&quot;:2}"/><path d="M294.99031,354.45357v-32.64932h8.97059c2.62591,0 4.75851,0.73617 6.39781,2.2085c1.6393,1.50269 2.45894,3.43797 2.45894,5.80584c0,1.5634 -0.31496,2.96364 -0.94487,4.2007c-0.62991,1.23706 -1.54443,2.24265 -2.74354,3.01676c0.60715,0.2125 1.15737,0.48572 1.65068,0.81965c0.49331,0.33393 0.96005,0.72858 1.40023,1.18394c0.69822,0.75893 1.22568,1.60514 1.58238,2.53863c0.3567,0.93349 0.53505,1.9922 0.53505,3.17614c0,2.80805 -0.9259,5.13798 -2.7777,6.98978c-1.8518,1.80626 -4.31074,2.70939 -7.37683,2.70939zM298.8381,325.51543v10.1773h3.43797c1.03215,0 1.94666,-0.11763 2.74354,-0.3529c0.79688,-0.23527 1.4913,-0.61853 2.08327,-1.14978c1.15358,-0.94108 1.73037,-2.26921 1.73037,-3.9844c0,-3.12681 -1.89733,-4.69021 -5.692,-4.69021zM298.8381,339.40392v11.36123h4.87235c2.17055,0 3.81744,-0.5009 4.94066,-1.50269c1.12322,-1.00179 1.68483,-2.44377 1.68483,-4.32592c0,-3.68842 -2.60314,-5.53263 -7.80943,-5.53263z" data-paper-data="{&quot;glyphName&quot;:&quot;B&quot;,&quot;glyphIndex&quot;:10,&quot;word&quot;:2,&quot;line&quot;:2}"/><path d="M342.39329,325.51543v28.93813h-3.89333v-28.93813h-8.92506v-3.71118h21.69791v3.71118z" data-paper-data="{&quot;glyphName&quot;:&quot;T&quot;,&quot;glyphIndex&quot;:11,&quot;word&quot;:2,&quot;line&quot;:2}"/><path d="M373.88144,354.95446c-1.41162,-0.06071 -2.78529,-0.36049 -4.12101,-0.89934c-1.33572,-0.53884 -2.62591,-1.30157 -3.87056,-2.28818l2.43618,-3.00538c1.04733,0.85001 2.0605,1.47992 3.03953,1.88974c0.97902,0.40982 1.9239,0.61474 2.83462,0.61474c2.12501,0.01518 3.74154,-0.40223 4.84959,-1.25224c1.10804,-0.85001 1.66206,-2.03394 1.66206,-3.55181c0,-0.6375 -0.09107,-1.22568 -0.27322,-1.76452c-0.18214,-0.53884 -0.44018,-1.00559 -0.77411,-1.40023h0.02277c-0.425,-0.44018 -1.08527,-0.97902 -1.98082,-1.61653c-0.89554,-0.6375 -1.98841,-1.32813 -3.27859,-2.07189c-3.24824,-1.94287 -5.32012,-3.55181 -6.21567,-4.82682c-0.95626,-1.38126 -1.43438,-2.97502 -1.43438,-4.78128c0,-2.45894 0.94867,-4.52324 2.846,-6.1929v0.02277c1.91251,-1.70001 4.36387,-2.55002 7.35407,-2.55002c1.42679,0.06071 2.80805,0.36429 4.14378,0.91072c1.33572,0.54643 2.62591,1.31295 3.87056,2.29957l-2.41341,2.98261c-1.04733,-0.85001 -2.0605,-1.47992 -3.03953,-1.88974c-0.97902,-0.40982 -1.9239,-0.61474 -2.83462,-0.61474c-1.86698,0 -3.33172,0.46295 -4.39422,1.38885c-1.03215,0.91072 -1.54822,2.04153 -1.54822,3.39243c0,0.6375 0.09107,1.22947 0.27322,1.7759c0.18214,0.54643 0.43259,1.00938 0.75134,1.38885h-0.02277c0.2125,0.19732 0.4971,0.43639 0.8538,0.71719c0.3567,0.28081 0.76652,0.58058 1.22947,0.89934c0.46295,0.31875 0.96385,0.65268 1.50269,1.00179c0.53884,0.34911 1.09666,0.69063 1.67345,1.02456c1.38126,0.78929 2.59935,1.59376 3.65426,2.41341c1.05492,0.81965 1.84041,1.55581 2.35649,2.2085c1.07769,1.3509 1.61653,2.98261 1.61653,4.89512c0,2.62591 -0.91831,4.7661 -2.75493,6.42058c-0.91072,0.83483 -2.02256,1.45715 -3.33551,1.86698c-1.31295,0.40982 -2.86497,0.60715 -4.65606,0.59197z" data-paper-data="{&quot;glyphName&quot;:&quot;S&quot;,&quot;glyphIndex&quot;:12,&quot;lastGlyphOfWord&quot;:true,&quot;word&quot;:2,&quot;line&quot;:2,&quot;lastGlyphOfSecondLine&quot;:true}"/></g><g data-paper-data="{&quot;isIcon&quot;:&quot;true&quot;,&quot;iconType&quot;:&quot;icon&quot;,&quot;rawIconId&quot;:&quot;1054588&quot;,&quot;selectedEffects&quot;:{&quot;container&quot;:&quot;&quot;,&quot;transformation&quot;:&quot;&quot;,&quot;pattern&quot;:&quot;&quot;},&quot;isDetailed&quot;:false,&quot;fillRule&quot;:&quot;evenodd&quot;,&quot;bounds&quot;:{&quot;x&quot;:210.16427722954182,&quot;y&quot;:115,&quot;width&quot;:129.6714455409164,&quot;height&quot;:129.6714585080622},&quot;iconStyle&quot;:&quot;standalone&quot;,&quot;suitableAsStandaloneIcon&quot;:true}" fill-rule="evenodd"/></g></g><g class="watermark-group" style="opacity:0.10; stroke: white; stroke-width: 2; stroke-opacity: 0.7;"/></svg>